<svg xmlns="http://www.w3.org/2000/svg" viewBox="0 0 1208.4 100" width="1208.4" height="100" role="img" aria-label="NEXO Business" xmlns:c2pa="http://c2pa.org/manifest"><metadata><c2pa:manifest>AAAWgmp1bWIAAAAeanVtZGMycGEAEQAQgAAAqgA4m3EDYzJwYQAAABZcanVtYgAAAEdqdW1kYzJtYQARABCAAACqADibcQN1cm46YzJwYToxNGNjZWQ1Ny1iNDM1LTRhOTUtODFmOC1jYzk4MTAxZDAwZTYAAAADl2p1bWIAAAApanVtZGMyYXMAEQAQgAAAqgA4m3EDYzJwYS5hc3NlcnRpb25zAAAAALxqdW1iAAAARGp1bWRjYm9yABEAEIAAAKoAOJtxE2MycGEuaW5ncmVkaWVudC52MwAAAAAYYzJzaGgevd5k37s8JMBh6JsNJ1AAAABwY2JvcqNpZGM6Zm9ybWF0bWltYWdlL3N2Zyt4bWxqaW5zdGFuY2VJRHgseG1wOmlpZDpmMDE5NTZhMy1iNjc4LTQyZGYtOTQ2OS1kOTlkMzYyYzIzNDhscmVsYXRpb25zaGlwaHBhcmVudE9mAAAB4mp1bWIAAABBanVtZGNib3IAEQAQgAAAqgA4m3ETYzJwYS5hY3Rpb25zLnYyAAAAABhjMnNo4eh0diEwLNCkPUgaeNlbDgAAAZljYm9yomdhY3Rpb25zgqJmYWN0aW9ua2MycGEub3BlbmVkanBhcmFtZXRlcnOha2luZ3JlZGllbnRzgaJjdXJseC1zZWxmI2p1bWJmPWMycGEuYXNzZXJ0aW9ucy9jMnBhLmluZ3JlZGllbnQudjNkaGFzaFggX01OhGmOp75ymc78kcYivlsycro6aySf64KzsYUK15+kZmFjdGlvbngdY29tLmFudGhyb3BpYy5jbGF1ZGUucHJvdmlkZWRqcGFyYW1ldGVyc6F4H2NvbS5hbnRocm9waWMub3JpZ2luLWNvbmZpZGVuY2VndW5rbm93bmtkZXNjcmlwdGlvbnhmQ2xhdWRlIHByb3ZpZGVkIHRoaXMgZmlsZSBhdCB0aGUgcmVxdWVzdCBvZiBhIHVzZXIgYW5kIG1heSBoYXZlIGNyZWF0ZWQgb3IgbW9kaWZpZWQgdGhlIGZpbGUgY29udGVudHMubXNvZnR3YXJlQWdlbnShZG5hbWVmQ2xhdWRlcmFsbEFjdGlvbnNJbmNsdWRlZPUAAADIanVtYgAAAEBqdW1kY2JvcgARABCAAACqADibcRNjMnBhLmhhc2guZGF0YQAAAAAYYzJzaKCEtZAmALzkprGrwTcfU8EAAACAY2JvcqVjYWxnZnNoYTI1NmNwYWRNAAAAAAAAAAAAAAAAAGRoYXNoWCAIKzuGZAA/o3mIOnMETY1oxg/sfh8ot4pSKLlOvWN+zmRuYW1lbmp1bWJmIG1hbmlmZXN0amV4Y2x1c2lvbnOBomVzdGFydBjCZmxlbmd0aBkeBAAAAj5qdW1iAAAAJ2p1bWRjMmNsABEAEIAAAKoAOJtxA2MycGEuY2xhaW0udjIAAAACD2Nib3KlY2FsZ2ZzaGEyNTZpc2lnbmF0dXJleE1zZWxmI2p1bWJmPS9jMnBhL3VybjpjMnBhOjE0Y2NlZDU3LWI0MzUtNGE5NS04MWY4LWNjOTgxMDFkMDBlNi9jMnBhLnNpZ25hdHVyZWppbnN0YW5jZUlEeCx4bXA6aWlkOmEwZjJkZGYxLWFhMDUtNDc2NS1hZTA1LTUzYzNiOWE0YmI4ZnJjcmVhdGVkX2Fzc2VydGlvbnODomN1cmx4LXNlbGYjanVtYmY9YzJwYS5hc3NlcnRpb25zL2MycGEuaW5ncmVkaWVudC52M2RoYXNoWCBfTU6EaY6nvnKZzvyRxiK+WzJyujprJJ/rgrOxhQrXn6JjdXJseCpzZWxmI2p1bWJmPWMycGEuYXNzZXJ0aW9ucy9jMnBhLmFjdGlvbnMudjJkaGFzaFggufeDSAHrzfgtBPDsMn6kdnA1lU5d62NDWZs8f/qfp+CiY3VybHgpc2VsZiNqdW1iZj1jMnBhLmFzc2VydGlvbnMvYzJwYS5oYXNoLmRhdGFkaGFzaFggflYrPDPvgcieuC8RZHDfZycaTJLISW5IcTNcSXt0gVl0Y2xhaW1fZ2VuZXJhdG9yX2luZm+jZG5hbWVvQW50aHJvcGljIEZpbGVzZ3ZlcnNpb25lMS4wLjBrc3BlY1ZlcnNpb25lMi40LjAAABA4anVtYgAAAChqdW1kYzJjcwARABCAAACqADibcQNjMnBhLnNpZ25hdHVyZQAAABAIY2JvctKEWQISogEmGCFZAgowggIGMIIBjaADAgECAhRA5aAK7sI50L64g/oGQgU9Z1UTADAKBggqhkjOPQQDAzBJMRcwFQYDVQQKEw5BbnRocm9waWMsIFBCQzEuMCwGA1UEAxMlQW50aHJvcGljIENvbnRlbnQgQ3JlZGVudGlhbHMgUm9vdCBDQTAeFw0yNjA4MDcxODQzNTZaFw0yODA4MDYxOTQzNTZaMEQxFzAVBgNVBAoTDkFudGhyb3BpYywgUEJDMSkwJwYDVQQDEyBBbnRocm9waWMgQ2xhdWRlIENvbnRlbnQgU2lnbmluZzBZMBMGByqGSM49AgEGCCqGSM49AwEHA0IABJh6CmvLUBgFFNU0vUKlOVtE6djd17L5SuwX0LemFisBM3dkd/3cyjxFA3Qo5S46fX0/ihY0VZ7mfb9KF703t5OjWDBWMA4GA1UdDwEB/wQEAwIHgDAVBgNVHSUEDjAMBgorBgEEAYPoXgIBMAwGA1UdEwEB/wQCMAAwHwYDVR0jBBgwFoAUzlHiBIFOZFsj+OPEz5o+nMHXXMIwCgYIKoZIzj0EAwMDZwAwZAIwMXMdFJ4BetLLVY7ORuE9noqbbAZOZn/aArXyTwFAZfKrPzxF2vPoJNf1+UCdg1XGAjBwX1zd9WGqYkqmL5SFqw1QySjr1zJfpJM9+1rdDwSPLMOPOjKuiXjoU/pUUeG9RwmhY3BhZFkNngAAAAAAAAAAAAAAAAAAAAAAAAAAAAAAAAAAAAAAAAAAAAAAAAAAAAAAAAAAAAAAAAAAAAAAAAAAAAAAAAAAAAAAAAAAAAAAAAAAAAAAAAAAAAAAAAAAAAAAAAAAAAAAAAAAAAAAAAAAAAAAAAAAAAAAAAAAAAAAAAAAAAAAAAAAAAAAAAAAAAAAAAAAAAAAAAAAAAAAAAAAAAAAAAAAAAAAAAAAAAAAAAAAAAAAAAAAAAAAAAAAAAAAAAAAAAAAAAAAAAAAAAAAAAAAAAAAAAAAAAAAAAAAAAAAAAAAAAAAAAAAAAAAAAAAAAAAAAAAAAAAAAAAAAAAAAAAAAAAAAAAAAAAAAAAAAAAAAAAAAAAAAAAAAAAAAAAAAAAAAAAAAAAAAAAAAAAAAAAAAAAAAAAAAAAAAAAAAAAAAAAAAAAAAAAAAAAAAAAAAAAAAAAAAAAAAAAAAAAAAAAAAAAAAAAAAAAAAAAAAAAAAAAAAAAAAAAAAAAAAAAAAAAAAAAAAAAAAAAAAAAAAAAAAAAAAAAAAAAAAAAAAAAAAAAAAAAAAAAAAAAAAAAAAAAAAAAAAAAAAAAAAAAAAAAAAAAAAAAAAAAAAAAAAAAAAAAAAAAAAAAAAAAAAAAAAAAAAAAAAAAAAAAAAAAAAAAAAAAAAAAAAAAAAAAAAAAAAAAAAAAAAAAAAAAAAAAAAAAAAAAAAAAAAAAAAAAAAAAAAAAAAAAAAAAAAAAAAAAAAAAAAAAAAAAAAAAAAAAAAAAAAAAAAAAAAAAAAAAAAAAAAAAAAAAAAAAAAAAAAAAAAAAAAAAAAAAAAAAAAAAAAAAAAAAAAAAAAAAAAAAAAAAAAAAAAAAAAAAAAAAAAAAAAAAAAAAAAAAAAAAAAAAAAAAAAAAAAAAAAAAAAAAAAAAAAAAAAAAAAAAAAAAAAAAAAAAAAAAAAAAAAAAAAAAAAAAAAAAAAAAAAAAAAAAAAAAAAAAAAAAAAAAAAAAAAAAAAAAAAAAAAAAAAAAAAAAAAAAAAAAAAAAAAAAAAAAAAAAAAAAAAAAAAAAAAAAAAAAAAAAAAAAAAAAAAAAAAAAAAAAAAAAAAAAAAAAAAAAAAAAAAAAAAAAAAAAAAAAAAAAAAAAAAAAAAAAAAAAAAAAAAAAAAAAAAAAAAAAAAAAAAAAAAAAAAAAAAAAAAAAAAAAAAAAAAAAAAAAAAAAAAAAAAAAAAAAAAAAAAAAAAAAAAAAAAAAAAAAAAAAAAAAAAAAAAAAAAAAAAAAAAAAAAAAAAAAAAAAAAAAAAAAAAAAAAAAAAAAAAAAAAAAAAAAAAAAAAAAAAAAAAAAAAAAAAAAAAAAAAAAAAAAAAAAAAAAAAAAAAAAAAAAAAAAAAAAAAAAAAAAAAAAAAAAAAAAAAAAAAAAAAAAAAAAAAAAAAAAAAAAAAAAAAAAAAAAAAAAAAAAAAAAAAAAAAAAAAAAAAAAAAAAAAAAAAAAAAAAAAAAAAAAAAAAAAAAAAAAAAAAAAAAAAAAAAAAAAAAAAAAAAAAAAAAAAAAAAAAAAAAAAAAAAAAAAAAAAAAAAAAAAAAAAAAAAAAAAAAAAAAAAAAAAAAAAAAAAAAAAAAAAAAAAAAAAAAAAAAAAAAAAAAAAAAAAAAAAAAAAAAAAAAAAAAAAAAAAAAAAAAAAAAAAAAAAAAAAAAAAAAAAAAAAAAAAAAAAAAAAAAAAAAAAAAAAAAAAAAAAAAAAAAAAAAAAAAAAAAAAAAAAAAAAAAAAAAAAAAAAAAAAAAAAAAAAAAAAAAAAAAAAAAAAAAAAAAAAAAAAAAAAAAAAAAAAAAAAAAAAAAAAAAAAAAAAAAAAAAAAAAAAAAAAAAAAAAAAAAAAAAAAAAAAAAAAAAAAAAAAAAAAAAAAAAAAAAAAAAAAAAAAAAAAAAAAAAAAAAAAAAAAAAAAAAAAAAAAAAAAAAAAAAAAAAAAAAAAAAAAAAAAAAAAAAAAAAAAAAAAAAAAAAAAAAAAAAAAAAAAAAAAAAAAAAAAAAAAAAAAAAAAAAAAAAAAAAAAAAAAAAAAAAAAAAAAAAAAAAAAAAAAAAAAAAAAAAAAAAAAAAAAAAAAAAAAAAAAAAAAAAAAAAAAAAAAAAAAAAAAAAAAAAAAAAAAAAAAAAAAAAAAAAAAAAAAAAAAAAAAAAAAAAAAAAAAAAAAAAAAAAAAAAAAAAAAAAAAAAAAAAAAAAAAAAAAAAAAAAAAAAAAAAAAAAAAAAAAAAAAAAAAAAAAAAAAAAAAAAAAAAAAAAAAAAAAAAAAAAAAAAAAAAAAAAAAAAAAAAAAAAAAAAAAAAAAAAAAAAAAAAAAAAAAAAAAAAAAAAAAAAAAAAAAAAAAAAAAAAAAAAAAAAAAAAAAAAAAAAAAAAAAAAAAAAAAAAAAAAAAAAAAAAAAAAAAAAAAAAAAAAAAAAAAAAAAAAAAAAAAAAAAAAAAAAAAAAAAAAAAAAAAAAAAAAAAAAAAAAAAAAAAAAAAAAAAAAAAAAAAAAAAAAAAAAAAAAAAAAAAAAAAAAAAAAAAAAAAAAAAAAAAAAAAAAAAAAAAAAAAAAAAAAAAAAAAAAAAAAAAAAAAAAAAAAAAAAAAAAAAAAAAAAAAAAAAAAAAAAAAAAAAAAAAAAAAAAAAAAAAAAAAAAAAAAAAAAAAAAAAAAAAAAAAAAAAAAAAAAAAAAAAAAAAAAAAAAAAAAAAAAAAAAAAAAAAAAAAAAAAAAAAAAAAAAAAAAAAAAAAAAAAAAAAAAAAAAAAAAAAAAAAAAAAAAAAAAAAAAAAAAAAAAAAAAAAAAAAAAAAAAAAAAAAAAAAAAAAAAAAAAAAAAAAAAAAAAAAAAAAAAAAAAAAAAAAAAAAAAAAAAAAAAAAAAAAAAAAAAAAAAAAAAAAAAAAAAAAAAAAAAAAAAAAAAAAAAAAAAAAAAAAAAAAAAAAAAAAAAAAAAAAAAAAAAAAAAAAAAAAAAAAAAAAAAAAAAAAAAAAAAAAAAAAAAAAAAAAAAAAAAAAAAAAAAAAAAAAAAAAAAAAAAAAAAAAAAAAAAAAAAAAAAAAAAAAAAAAAAAAAAAAAAAAAAAAAAAAAAAAAAAAAAAAAAAAAAAAAAAAAAAAAAAAAAAAAAAAAAAAAAAAAAAAAAAAAAAAAAAAAAAAAAAAAAAAAAAAAAAAAAAAAAAAAAAAAAAAAAAAAAAAAAAAAAAAAAAAAAAAAAAAAAAAAAAAAAAAAAAAAAAAAAAAAAAAAAAAAAAAAAAAAAAAAAAAAAAAAAAAAAAAAAAAAAAAAAAAAAAAAAAAAAAAAAAAAAAAAAAAAAAAAAAAAAAAAAAAAAAAAAAAAAAAAAAAAAAAAAAAAAAAAAAAAAAAAAAAAAAAAAAAAAAAAAAAAAAAAAAAAAAAAAAAAAAAAAAAAAAAAAAAAAAAAAAAAAAAAAAAAAAAAAAAAAAAAAAAAAAAAAAAAAAAAAAAAAAAAAAAAAAAAAAAAAAAAAAAAAAAAAAAAAAAAAAAAAAAAAAAAAAAAAAAAAAAAAAAAAAAAAAAAAAAAAAAAAAAAAAAAAAAAAAAAAAAAAAAAAAAAAAAAAAAAAAAAAAAAAAAAAAAAAAAAAAAAAAAAAAAAAAAAAAAAAAAAAAAAAAAAAAAAAAAAAAAAAAAAAAAAAAAAAAAAAAAAAAAAAAAAAAAAAAAAAAAAAAAAAAAAAAAAAAAAAAAAAAAAAAAAAAAAAAAAAAAAAAAAAAAAAAAAAAAAAAAAAAAAAAAAAAAAAAAAAAAAAAAAAAAAAAAAAAAAAAAAAAAAAAAAAAAAAAAAAAAAAAAAAAAAAAAAAAAAAAAAAAAAAAAAAAAAAAAAAAAAAAAAAAAAAAAAAAAAAAAAAAAAAAAAAAAAAAAAAAAAAAAAAAAAAAAAAAAAAAAAAAAAAAAAAAAAAAAAAAAAAAAAAAAAAAAAAAAAAAAAAAAAAAAAAAAAAAAAAAAAAAAAAAAAAAAAAAAAAAAAAAAAAAAAAAAAAAAAAAAAAAAAAAAAAAAAAAAAAAAAAAAAAAAAAAAAAAAAAAAAAAAAAAAAAAAAAAAAAAAAAAAAAAAAAAAAAAAAAAAAAAAAAAAAAAAAAAAAAAAAAAAAAAAAAAAAAAAAAAAAAAAAAAAAAAAAAAAAAAAAAAAAAAAAAAAAAAAAAAAAAAAAAAAAAAAAAAAAAAAAAAAAAAAAAAAAAAAAAAAAAAAAAAAAAAAAAAAAAAAAAAAAAAAAAAAAAAAAAAAAAAAAAAAAAAAAAAAAAAAAAAAAAAAAAAAAAAAAAAAAAAAAAAAAAAAAAAAAAAAAAAAAAAAAAAAAAAAAAAAAAAAAAAAAAAAAAAAAAAAAAAAAAAAAAAAAAAAAAAAAAAAAAAAAAAAAAAAAAAAAAAAAAAAAAAAAAAAAAAAAAAAAAAAAAAAAAAAAAAAAAAAAAAAAAAAAAAAAAAAAAAAAAAAAAAAAAAAAAAAAAAAAAAAAAAAAAAAAAAAAAAAAAAAAAAAAAAAAAAAAAAAAAAAAAAAAAAAAAAAAAAAAAAAAAAAAAAAAAAAAAAAAAAAAAAAAAAAAAAAAAAAAAAAAAAAAAAAAAAAAAAAAAAAAAAAAAAAAAAAAAAAAAAAAAAAAAAAAAAAAAAAAAAAAAAAAAAAAAAAAAAAAAAAAAAAAAAPZYQLHHffqcejLReL7pgGGn8XWiP5NpZG2ommB/ags/UYjCu9mUhCYb897GUW5ZNNjpZA7q2N25eso5UWkYCJiqrAE=</c2pa:manifest></metadata><path fill="#121212" d="M100 14.9 L100 14.6 L100 14.4 L99.9 14.1 L99.8 13.9 L99.7 13.7 L99.6 13.5 L99.4 13.3 L99.3 13.1 L99.1 12.9 L98.9 12.8 L98.7 12.7 L98.5 12.6 L98.2 12.5 L98 12.4 L97.7 12.4 L97.5 12.4 L97.3 12.4 L97 12.4 L96.8 12.5 L96.5 12.6 L96.3 12.7 L96.1 12.8 L95.9 12.9 L95.7 13.1 L60.6 48.2 L60.4 48.4 L60.3 48.6 L60.2 48.8 L60.1 49 L60 49.3 L59.9 49.5 L59.9 49.8 L59.9 50 L59.9 50.2 L59.9 50.5 L60 50.7 L60.1 51 L60.2 51.2 L60.3 51.4 L60.4 51.6 L60.6 51.8 L95.7 86.9 L95.9 87.1 L96.1 87.2 L96.3 87.3 L96.5 87.4 L96.8 87.5 L97 87.6 L97.3 87.6 L97.5 87.6 L97.7 87.6 L98 87.6 L98.2 87.5 L98.5 87.4 L98.7 87.3 L98.9 87.2 L99.1 87.1 L99.3 86.9 L99.4 86.7 L99.6 86.5 L99.7 86.3 L99.8 86.1 L99.9 85.9 L100 85.6 L100 85.4 L100 85.1ZM14.9 0 L14.6 0 L14.4 0 L14.1 0.1 L13.9 0.2 L13.7 0.3 L13.5 0.4 L13.3 0.6 L13.1 0.7 L12.9 0.9 L12.8 1.1 L12.7 1.3 L12.6 1.5 L12.5 1.8 L12.4 2 L12.4 2.3 L12.4 2.5 L12.4 2.7 L12.4 3 L12.5 3.2 L12.6 3.5 L12.7 3.7 L12.8 3.9 L12.9 4.1 L13.1 4.3 L48.2 39.4 L48.4 39.6 L48.6 39.7 L48.8 39.8 L49 39.9 L49.3 40 L49.5 40.1 L49.8 40.1 L50 40.1 L50.2 40.1 L50.5 40.1 L50.7 40 L51 39.9 L51.2 39.8 L51.4 39.7 L51.6 39.6 L51.8 39.4 L86.9 4.3 L87.1 4.1 L87.2 3.9 L87.3 3.7 L87.4 3.5 L87.5 3.2 L87.6 3 L87.6 2.7 L87.6 2.5 L87.6 2.3 L87.6 2 L87.5 1.8 L87.4 1.5 L87.3 1.3 L87.2 1.1 L87.1 0.9 L86.9 0.7 L86.7 0.6 L86.5 0.4 L86.3 0.3 L86.1 0.2 L85.9 0.1 L85.6 0 L85.4 0 L85.1 0ZM85.1 100 L85.4 100 L85.6 100 L85.9 99.9 L86.1 99.8 L86.3 99.7 L86.5 99.6 L86.7 99.4 L86.9 99.3 L87.1 99.1 L87.2 98.9 L87.3 98.7 L87.4 98.5 L87.5 98.2 L87.6 98 L87.6 97.7 L87.6 97.5 L87.6 97.3 L87.6 97 L87.5 96.8 L87.4 96.5 L87.3 96.3 L87.2 96.1 L87.1 95.9 L86.9 95.7 L51.8 60.6 L51.6 60.4 L51.4 60.3 L51.2 60.2 L51 60.1 L50.7 60 L50.5 59.9 L50.2 59.9 L50 59.9 L49.8 59.9 L49.5 59.9 L49.3 60 L49 60.1 L48.8 60.2 L48.6 60.3 L48.4 60.4 L48.2 60.6 L13.1 95.7 L12.9 95.9 L12.8 96.1 L12.7 96.3 L12.6 96.5 L12.5 96.8 L12.4 97 L12.4 97.3 L12.4 97.5 L12.4 97.7 L12.4 98 L12.5 98.2 L12.6 98.5 L12.7 98.7 L12.8 98.9 L12.9 99.1 L13.1 99.3 L13.3 99.4 L13.5 99.6 L13.7 99.7 L13.9 99.8 L14.1 99.9 L14.4 100 L14.6 100 L14.9 100ZM0 85.1 L0 85.4 L0 85.6 L0.1 85.9 L0.2 86.1 L0.3 86.3 L0.4 86.5 L0.6 86.7 L0.7 86.9 L0.9 87.1 L1.1 87.2 L1.3 87.3 L1.5 87.4 L1.8 87.5 L2 87.6 L2.3 87.6 L2.5 87.6 L2.7 87.6 L3 87.6 L3.2 87.5 L3.5 87.4 L3.7 87.3 L3.9 87.2 L4.1 87.1 L4.3 86.9 L39.4 51.8 L39.6 51.6 L39.7 51.4 L39.8 51.2 L39.9 51 L40 50.7 L40.1 50.5 L40.1 50.2 L40.1 50 L40.1 49.8 L40.1 49.5 L40 49.3 L39.9 49 L39.8 48.8 L39.7 48.6 L39.6 48.4 L39.4 48.2 L4.3 13.1 L4.1 12.9 L3.9 12.8 L3.7 12.7 L3.5 12.6 L3.2 12.5 L3 12.4 L2.7 12.4 L2.5 12.4 L2.3 12.4 L2 12.4 L1.8 12.5 L1.5 12.6 L1.3 12.7 L1.1 12.8 L0.9 12.9 L0.7 13.1 L0.6 13.3 L0.4 13.5 L0.3 13.7 L0.2 13.9 L0.1 14.1 L0 14.4 L0 14.6 L0 14.9Z"></path><path fill="#121212" d="M162.5 44 L197.5 100 L202.5 100 L230 100 L230 0 L202.5 0 L202.5 56 L167.5 0 L162.5 0 L135 0 L135 100 L162.5 100ZM241 60.2 L241 77.5 L241 100 L268.5 100 L316 100 L316 77.5 L268.5 77.5 L268.5 60.2 L309.8 60.2 L309.8 37.8 L268.5 37.8 L268.5 22.5 L316 22.5 L316 0 L268.5 0 L241 0 L241 22.5 L241 37.8ZM355.5 50 L323 100 L355.5 100 L371.8 75 L388 100 L420.5 100 L388 50 L420.5 0 L388 0 L371.8 25 L355.5 0 L323 0ZM457.9 0.3 L455.7 0.7 L453.4 1.2 L451.2 1.9 L449.1 2.7 L447 3.6 L445 4.7 L443.1 5.9 L441.2 7.2 L439.4 8.7 L437.8 10.3 L436.2 11.9 L434.7 13.7 L433.4 15.6 L432.2 17.5 L431.1 19.5 L430.2 21.6 L429.4 23.7 L428.7 25.9 L428.2 28.2 L427.8 30.4 L427.6 32.7 L427.5 35 L427.5 65 L427.6 67.3 L427.8 69.6 L428.2 71.8 L428.7 74.1 L429.4 76.3 L430.2 78.4 L431.1 80.5 L432.2 82.5 L433.4 84.4 L434.7 86.3 L436.2 88.1 L437.8 89.7 L439.4 91.3 L441.2 92.8 L443.1 94.1 L445 95.3 L447 96.4 L449.1 97.3 L451.2 98.1 L453.4 98.8 L455.7 99.3 L457.9 99.7 L460.2 99.9 L462.5 100 L495 100 L497.3 99.9 L499.6 99.7 L501.8 99.3 L504.1 98.8 L506.3 98.1 L508.4 97.3 L510.5 96.4 L512.5 95.3 L514.4 94.1 L516.3 92.8 L518.1 91.3 L519.7 89.7 L521.3 88.1 L522.8 86.3 L524.1 84.4 L525.3 82.5 L526.4 80.5 L527.3 78.4 L528.1 76.3 L528.8 74.1 L529.3 71.8 L529.7 69.6 L529.9 67.3 L530 65 L530 35 L529.9 32.7 L529.7 30.4 L529.3 28.2 L528.8 25.9 L528.1 23.7 L527.3 21.6 L526.4 19.5 L525.3 17.5 L524.1 15.6 L522.8 13.7 L521.3 11.9 L519.7 10.3 L518.1 8.7 L516.3 7.2 L514.4 5.9 L512.5 4.7 L510.5 3.6 L508.4 2.7 L506.3 1.9 L504.1 1.2 L501.8 0.7 L499.6 0.3 L497.3 0.1 L495 0 L462.5 0 L460.2 0.1ZM490.9 22.7 L491.7 22.9 L492.5 23.2 L493.3 23.5 L494 23.8 L494.8 24.2 L495.4 24.6 L496.1 25.1 L496.7 25.6 L497.3 26.2 L497.9 26.8 L498.4 27.4 L498.9 28.1 L499.3 28.8 L499.7 29.5 L500 30.2 L500.3 31 L500.6 31.8 L500.8 32.6 L500.9 33.4 L501 34.2 L501 35 L501 65 L501 65.8 L500.9 66.6 L500.8 67.4 L500.6 68.2 L500.3 69 L500 69.8 L499.7 70.5 L499.3 71.2 L498.9 71.9 L498.4 72.6 L497.9 73.2 L497.3 73.8 L496.7 74.4 L496.1 74.9 L495.4 75.4 L494.8 75.8 L494 76.2 L493.3 76.5 L492.5 76.8 L491.7 77.1 L490.9 77.3 L490.1 77.4 L489.3 77.5 L488.5 77.5 L469 77.5 L468.2 77.5 L467.4 77.4 L466.6 77.3 L465.8 77.1 L465 76.8 L464.2 76.5 L463.5 76.2 L462.8 75.8 L462.1 75.4 L461.4 74.9 L460.8 74.4 L460.2 73.8 L459.6 73.2 L459.1 72.6 L458.6 71.9 L458.2 71.2 L457.8 70.5 L457.5 69.8 L457.2 69 L456.9 68.2 L456.7 67.4 L456.6 66.6 L456.5 65.8 L456.5 65 L456.5 35 L456.5 34.2 L456.6 33.4 L456.7 32.6 L456.9 31.8 L457.2 31 L457.5 30.2 L457.8 29.5 L458.2 28.8 L458.6 28.1 L459.1 27.4 L459.6 26.8 L460.2 26.2 L460.8 25.6 L461.4 25.1 L462.1 24.6 L462.8 24.2 L463.5 23.8 L464.2 23.5 L465 23.2 L465.8 22.9 L466.6 22.7 L467.4 22.6 L468.2 22.5 L469 22.5 L488.5 22.5 L489.3 22.5 L490.1 22.6Z"></path><path fill="#121212" d="M565.9 100V-0.1H627.2Q634.9 -0.1 641.2 2.9Q647.4 6 651.1 11.5Q654.9 17.1 654.9 24.5Q654.9 31 652.6 35.7Q650.3 40.4 646.6 43.3Q642.9 46.2 638.2 47.7V48.3Q643.6 49.4 648 52.4Q652.4 55.4 654.9 60.5Q657.5 65.6 657.5 72.9Q657.5 81.5 653.4 87.5Q649.3 93.6 642.6 96.8Q635.9 100 627.6 100ZM592 79.9H620.5Q625.1 79.9 628 77.1Q630.8 74.3 630.8 68.7Q630.8 65.6 629.6 63.2Q628.3 60.8 625.9 59.5Q623.5 58.2 620 58.2H592ZM592 39.7H618.1Q621.3 39.7 623.6 38.3Q625.8 37 627.1 34.7Q628.3 32.4 628.3 29.2Q628.3 24.5 625.6 21.9Q622.8 19.2 618.6 19.2H592ZM695.1 101.7Q682.8 101.7 676 94.9Q669.2 88 669.2 73.9V23.2H693.1V70.6Q693.1 73.6 693.9 75.9Q694.7 78.3 696.2 79.9Q697.6 81.5 699.9 82.2Q702.1 82.9 704.8 82.9Q709 82.9 712.2 81Q715.4 79 717.3 75.6Q719.2 72.2 719.2 68.1V23.2H743.1V100H723.4L722 89.1H721Q718.3 92.9 714.3 95.8Q710.3 98.7 705.4 100.2Q700.5 101.7 695.1 101.7ZM791.3 101.7Q783.7 101.7 777.1 100.1Q770.4 98.5 765.4 95.5Q760.4 92.4 757.5 87.9Q754.7 83.4 754.7 77.4Q754.7 76.8 754.7 76.3Q754.7 75.8 754.8 75.4H777.4Q777.4 75.7 777.4 76Q777.4 76.4 777.4 76.7Q777.6 79.9 779.5 82Q781.5 84.1 784.7 85.1Q787.9 86 791.7 86Q794.5 86 797.6 85.4Q800.7 84.8 802.9 83.4Q805.1 81.9 805.1 79.2Q805.1 76.1 802.4 74.5Q799.7 72.9 795.3 71.8Q790.8 70.7 785.7 69.7Q780.6 68.5 775.5 67.1Q770.3 65.6 766 63Q761.7 60.5 759.1 56.4Q756.4 52.3 756.4 46.1Q756.4 39.4 759.3 34.6Q762.1 29.9 767.1 27Q772 24.1 778.5 22.7Q785 21.4 792.3 21.4Q799 21.4 805 22.7Q811.1 24.1 816 26.7Q820.9 29.4 823.6 33.6Q826.4 37.8 826.4 43.3Q826.4 44 826.3 44.8Q826.3 45.6 826.3 45.9H803.8V44.8Q803.8 42.3 802.2 40.7Q800.6 39.1 797.8 38.1Q795.1 37.2 791.7 37.2Q789.5 37.2 787.4 37.5Q785.3 37.9 783.5 38.6Q781.8 39.2 780.7 40.4Q779.6 41.5 779.6 43.3Q779.6 45.5 781.5 46.9Q783.4 48.3 786.7 49.1Q790 50 793.9 51Q799.3 52.2 805.3 53.4Q811.2 54.7 816.6 56.9Q821.9 59.2 825.2 63.6Q828.4 68.1 828.4 75.8Q828.4 83.1 825.5 88.1Q822.6 93.1 817.5 96.1Q812.4 99.1 805.7 100.4Q799 101.7 791.3 101.7ZM839.7 12.8V-5.5H863.6V12.8ZM839.7 100V23.2H863.6V100ZM878.7 100V23.2H898.4L900.1 34.1H901.2Q904.1 30.2 907.9 27.3Q911.7 24.3 916.5 22.9Q921.3 21.4 926.7 21.4Q935 21.4 940.7 24.5Q946.5 27.6 949.6 33.7Q952.6 39.8 952.6 49.3V100H928.7V52.6Q928.7 49.4 927.9 47.2Q927.1 44.9 925.7 43.3Q924.2 41.7 922 41Q919.8 40.2 917.1 40.2Q912.8 40.2 909.6 42.2Q906.4 44.2 904.5 47.4Q902.6 50.7 902.6 55.1V100ZM1005 101.7Q991.9 101.7 982.7 97.4Q973.5 93.1 968.6 84.3Q963.8 75.4 963.8 61.5Q963.8 48 968.6 39.1Q973.4 30.2 982.4 25.8Q991.5 21.4 1004.1 21.4Q1016.7 21.4 1025.3 25.7Q1034 29.9 1038.5 38.6Q1043.1 47.4 1043.1 61.2V66.3H988Q988 72.4 989.7 76.7Q991.5 80.9 995.1 83.1Q998.7 85.3 1004.9 85.3Q1008.5 85.3 1011.3 84.4Q1014.1 83.5 1015.9 81.9Q1017.8 80.2 1018.9 77.8Q1019.9 75.5 1019.9 72.6H1043.1Q1043.1 79.6 1040.5 85.1Q1038 90.5 1033 94.2Q1028 98 1021 99.9Q1013.9 101.7 1005 101.7ZM988.1 53.1H1018.7Q1018.7 49.3 1017.8 46.4Q1016.8 43.6 1015 41.7Q1013.2 39.8 1010.6 38.8Q1008.1 37.9 1004.7 37.9Q999.5 37.9 996 39.7Q992.5 41.4 990.6 44.8Q988.7 48.1 988.1 53.1ZM1087.6 101.7Q1080 101.7 1073.4 100.1Q1066.7 98.5 1061.7 95.5Q1056.7 92.4 1053.8 87.9Q1051 83.4 1051 77.4Q1051 76.8 1051 76.3Q1051 75.8 1051.1 75.4H1073.7Q1073.7 75.7 1073.7 76Q1073.7 76.4 1073.7 76.7Q1073.9 79.9 1075.8 82Q1077.8 84.1 1081 85.1Q1084.2 86 1088 86Q1090.8 86 1093.9 85.4Q1097.1 84.8 1099.2 83.4Q1101.4 81.9 1101.4 79.2Q1101.4 76.1 1098.7 74.5Q1096 72.9 1091.6 71.8Q1087.1 70.7 1082 69.7Q1076.9 68.5 1071.8 67.1Q1066.6 65.6 1062.3 63Q1058 60.5 1055.4 56.4Q1052.7 52.3 1052.7 46.1Q1052.7 39.4 1055.6 34.6Q1058.4 29.9 1063.4 27Q1068.3 24.1 1074.8 22.7Q1081.3 21.4 1088.6 21.4Q1095.3 21.4 1101.4 22.7Q1107.4 24.1 1112.3 26.7Q1117.2 29.4 1119.9 33.6Q1122.7 37.8 1122.7 43.3Q1122.7 44 1122.6 44.8Q1122.6 45.6 1122.6 45.9H1100.1V44.8Q1100.1 42.3 1098.5 40.7Q1096.9 39.1 1094.1 38.1Q1091.4 37.2 1088 37.2Q1085.8 37.2 1083.7 37.5Q1081.6 37.9 1079.9 38.6Q1078.1 39.2 1077 40.4Q1075.9 41.5 1075.9 43.3Q1075.9 45.5 1077.8 46.9Q1079.7 48.3 1083 49.1Q1086.3 50 1090.2 51Q1095.6 52.2 1101.6 53.4Q1107.6 54.7 1112.9 56.9Q1118.2 59.2 1121.5 63.6Q1124.8 68.1 1124.8 75.8Q1124.8 83.1 1121.8 88.1Q1118.9 93.1 1113.8 96.1Q1108.7 99.1 1102 100.4Q1095.3 101.7 1087.6 101.7ZM1169 101.7Q1161.4 101.7 1154.8 100.1Q1148.1 98.5 1143.1 95.5Q1138.1 92.4 1135.2 87.9Q1132.4 83.4 1132.4 77.4Q1132.4 76.8 1132.4 76.3Q1132.4 75.8 1132.5 75.4H1155.1Q1155.1 75.7 1155.1 76Q1155.1 76.4 1155.1 76.7Q1155.3 79.9 1157.3 82Q1159.2 84.1 1162.4 85.1Q1165.6 86 1169.4 86Q1172.2 86 1175.3 85.4Q1178.5 84.8 1180.6 83.4Q1182.8 81.9 1182.8 79.2Q1182.8 76.1 1180.1 74.5Q1177.4 72.9 1173 71.8Q1168.5 70.7 1163.4 69.7Q1158.3 68.5 1153.2 67.1Q1148 65.6 1143.7 63Q1139.4 60.5 1136.8 56.4Q1134.1 52.3 1134.1 46.1Q1134.1 39.4 1137 34.6Q1139.8 29.9 1144.8 27Q1149.7 24.1 1156.2 22.7Q1162.7 21.4 1170 21.4Q1176.7 21.4 1182.8 22.7Q1188.8 24.1 1193.7 26.7Q1198.6 29.4 1201.3 33.6Q1204.1 37.8 1204.1 43.3Q1204.1 44 1204 44.8Q1204 45.6 1204 45.9H1181.5V44.8Q1181.5 42.3 1179.9 40.7Q1178.3 39.1 1175.5 38.1Q1172.8 37.2 1169.4 37.2Q1167.2 37.2 1165.1 37.5Q1163 37.9 1161.3 38.6Q1159.5 39.2 1158.4 40.4Q1157.3 41.5 1157.3 43.3Q1157.3 45.5 1159.2 46.9Q1161.1 48.3 1164.4 49.1Q1167.7 50 1171.6 51Q1177 52.2 1183 53.4Q1189 54.7 1194.3 56.9Q1199.6 59.2 1202.9 63.6Q1206.2 68.1 1206.2 75.8Q1206.2 83.1 1203.2 88.1Q1200.3 93.1 1195.2 96.1Q1190.1 99.1 1183.4 100.4Q1176.7 101.7 1169 101.7Z"></path></svg>