<svg xmlns="http://www.w3.org/2000/svg" viewBox="0 0 2113 1459" xmlns:c2pa="http://c2pa.org/manifest"><metadata><c2pa:manifest>AAAWgmp1bWIAAAAeanVtZGMycGEAEQAQgAAAqgA4m3EDYzJwYQAAABZcanVtYgAAAEdqdW1kYzJtYQARABCAAACqADibcQN1cm46YzJwYToyYWFmMzQ4YS0xZmE3LTRiZGMtODlkNC1mZDg0NTBkNmIwZWYAAAADl2p1bWIAAAApanVtZGMyYXMAEQAQgAAAqgA4m3EDYzJwYS5hc3NlcnRpb25zAAAAALxqdW1iAAAARGp1bWRjYm9yABEAEIAAAKoAOJtxE2MycGEuaW5ncmVkaWVudC52MwAAAAAYYzJzaFP2sYKQlEL/Mf/0uGoLcJAAAABwY2JvcqNpZGM6Zm9ybWF0bWltYWdlL3N2Zyt4bWxqaW5zdGFuY2VJRHgseG1wOmlpZDphODQ0YTIxOC00NjI2LTQyNzItYTY5Mi05NzZmY2UzMjM1NTJscmVsYXRpb25zaGlwaHBhcmVudE9mAAAB4mp1bWIAAABBanVtZGNib3IAEQAQgAAAqgA4m3ETYzJwYS5hY3Rpb25zLnYyAAAAABhjMnNoRNlwnClrfOcon0MEA2GIYAAAAZljYm9yomdhY3Rpb25zgqJmYWN0aW9ua2MycGEub3BlbmVkanBhcmFtZXRlcnOha2luZ3JlZGllbnRzgaJjdXJseC1zZWxmI2p1bWJmPWMycGEuYXNzZXJ0aW9ucy9jMnBhLmluZ3JlZGllbnQudjNkaGFzaFggb2m3UXC+U1hYiFplwtiBfwOUyTF6JAG7JOmg4a2HxKOkZmFjdGlvbngdY29tLmFudGhyb3BpYy5jbGF1ZGUucHJvdmlkZWRqcGFyYW1ldGVyc6F4H2NvbS5hbnRocm9waWMub3JpZ2luLWNvbmZpZGVuY2VndW5rbm93bmtkZXNjcmlwdGlvbnhmQ2xhdWRlIHByb3ZpZGVkIHRoaXMgZmlsZSBhdCB0aGUgcmVxdWVzdCBvZiBhIHVzZXIgYW5kIG1heSBoYXZlIGNyZWF0ZWQgb3IgbW9kaWZpZWQgdGhlIGZpbGUgY29udGVudHMubXNvZnR3YXJlQWdlbnShZG5hbWVmQ2xhdWRlcmFsbEFjdGlvbnNJbmNsdWRlZPUAAADIanVtYgAAAEBqdW1kY2JvcgARABCAAACqADibcRNjMnBhLmhhc2guZGF0YQAAAAAYYzJzaJJxdrIpY15nVxtJSvxV4+MAAACAY2JvcqVjYWxnZnNoYTI1NmNwYWRNAAAAAAAAAAAAAAAAAGRoYXNoWCAHISm1yejMCmt9dGHlnmnwqwYJosUa1gR6X2faG9xaPmRuYW1lbmp1bWJmIG1hbmlmZXN0amV4Y2x1c2lvbnOBomVzdGFydBh/Zmxlbmd0aBkeBAAAAj5qdW1iAAAAJ2p1bWRjMmNsABEAEIAAAKoAOJtxA2MycGEuY2xhaW0udjIAAAACD2Nib3KlY2FsZ2ZzaGEyNTZpc2lnbmF0dXJleE1zZWxmI2p1bWJmPS9jMnBhL3VybjpjMnBhOjJhYWYzNDhhLTFmYTctNGJkYy04OWQ0LWZkODQ1MGQ2YjBlZi9jMnBhLnNpZ25hdHVyZWppbnN0YW5jZUlEeCx4bXA6aWlkOmU2YzVlNzA0LTYxODctNDliOC04MDFkLTlmOGMzMDk4OWNiMXJjcmVhdGVkX2Fzc2VydGlvbnODomN1cmx4LXNlbGYjanVtYmY9YzJwYS5hc3NlcnRpb25zL2MycGEuaW5ncmVkaWVudC52M2RoYXNoWCBvabdRcL5TWFiIWmXC2IF/A5TJMXokAbsk6aDhrYfEo6JjdXJseCpzZWxmI2p1bWJmPWMycGEuYXNzZXJ0aW9ucy9jMnBhLmFjdGlvbnMudjJkaGFzaFggMCZVwEJRhDtBe5MO3nZPGZkEJcYnSf4JTiQ0m5JFUB6iY3VybHgpc2VsZiNqdW1iZj1jMnBhLmFzc2VydGlvbnMvYzJwYS5oYXNoLmRhdGFkaGFzaFgg3ebcX340DIYqUH4EnSfw5eYGYTrdYxD6WE8IKEReas50Y2xhaW1fZ2VuZXJhdG9yX2luZm+jZG5hbWVvQW50aHJvcGljIEZpbGVzZ3ZlcnNpb25lMS4wLjBrc3BlY1ZlcnNpb25lMi40LjAAABA4anVtYgAAAChqdW1kYzJjcwARABCAAACqADibcQNjMnBhLnNpZ25hdHVyZQAAABAIY2JvctKEWQISogEmGCFZAgowggIGMIIBjaADAgECAhRA5aAK7sI50L64g/oGQgU9Z1UTADAKBggqhkjOPQQDAzBJMRcwFQYDVQQKEw5BbnRocm9waWMsIFBCQzEuMCwGA1UEAxMlQW50aHJvcGljIENvbnRlbnQgQ3JlZGVudGlhbHMgUm9vdCBDQTAeFw0yNjA4MDcxODQzNTZaFw0yODA4MDYxOTQzNTZaMEQxFzAVBgNVBAoTDkFudGhyb3BpYywgUEJDMSkwJwYDVQQDEyBBbnRocm9waWMgQ2xhdWRlIENvbnRlbnQgU2lnbmluZzBZMBMGByqGSM49AgEGCCqGSM49AwEHA0IABJh6CmvLUBgFFNU0vUKlOVtE6djd17L5SuwX0LemFisBM3dkd/3cyjxFA3Qo5S46fX0/ihY0VZ7mfb9KF703t5OjWDBWMA4GA1UdDwEB/wQEAwIHgDAVBgNVHSUEDjAMBgorBgEEAYPoXgIBMAwGA1UdEwEB/wQCMAAwHwYDVR0jBBgwFoAUzlHiBIFOZFsj+OPEz5o+nMHXXMIwCgYIKoZIzj0EAwMDZwAwZAIwMXMdFJ4BetLLVY7ORuE9noqbbAZOZn/aArXyTwFAZfKrPzxF2vPoJNf1+UCdg1XGAjBwX1zd9WGqYkqmL5SFqw1QySjr1zJfpJM9+1rdDwSPLMOPOjKuiXjoU/pUUeG9RwmhY3BhZFkNngAAAAAAAAAAAAAAAAAAAAAAAAAAAAAAAAAAAAAAAAAAAAAAAAAAAAAAAAAAAAAAAAAAAAAAAAAAAAAAAAAAAAAAAAAAAAAAAAAAAAAAAAAAAAAAAAAAAAAAAAAAAAAAAAAAAAAAAAAAAAAAAAAAAAAAAAAAAAAAAAAAAAAAAAAAAAAAAAAAAAAAAAAAAAAAAAAAAAAAAAAAAAAAAAAAAAAAAAAAAAAAAAAAAAAAAAAAAAAAAAAAAAAAAAAAAAAAAAAAAAAAAAAAAAAAAAAAAAAAAAAAAAAAAAAAAAAAAAAAAAAAAAAAAAAAAAAAAAAAAAAAAAAAAAAAAAAAAAAAAAAAAAAAAAAAAAAAAAAAAAAAAAAAAAAAAAAAAAAAAAAAAAAAAAAAAAAAAAAAAAAAAAAAAAAAAAAAAAAAAAAAAAAAAAAAAAAAAAAAAAAAAAAAAAAAAAAAAAAAAAAAAAAAAAAAAAAAAAAAAAAAAAAAAAAAAAAAAAAAAAAAAAAAAAAAAAAAAAAAAAAAAAAAAAAAAAAAAAAAAAAAAAAAAAAAAAAAAAAAAAAAAAAAAAAAAAAAAAAAAAAAAAAAAAAAAAAAAAAAAAAAAAAAAAAAAAAAAAAAAAAAAAAAAAAAAAAAAAAAAAAAAAAAAAAAAAAAAAAAAAAAAAAAAAAAAAAAAAAAAAAAAAAAAAAAAAAAAAAAAAAAAAAAAAAAAAAAAAAAAAAAAAAAAAAAAAAAAAAAAAAAAAAAAAAAAAAAAAAAAAAAAAAAAAAAAAAAAAAAAAAAAAAAAAAAAAAAAAAAAAAAAAAAAAAAAAAAAAAAAAAAAAAAAAAAAAAAAAAAAAAAAAAAAAAAAAAAAAAAAAAAAAAAAAAAAAAAAAAAAAAAAAAAAAAAAAAAAAAAAAAAAAAAAAAAAAAAAAAAAAAAAAAAAAAAAAAAAAAAAAAAAAAAAAAAAAAAAAAAAAAAAAAAAAAAAAAAAAAAAAAAAAAAAAAAAAAAAAAAAAAAAAAAAAAAAAAAAAAAAAAAAAAAAAAAAAAAAAAAAAAAAAAAAAAAAAAAAAAAAAAAAAAAAAAAAAAAAAAAAAAAAAAAAAAAAAAAAAAAAAAAAAAAAAAAAAAAAAAAAAAAAAAAAAAAAAAAAAAAAAAAAAAAAAAAAAAAAAAAAAAAAAAAAAAAAAAAAAAAAAAAAAAAAAAAAAAAAAAAAAAAAAAAAAAAAAAAAAAAAAAAAAAAAAAAAAAAAAAAAAAAAAAAAAAAAAAAAAAAAAAAAAAAAAAAAAAAAAAAAAAAAAAAAAAAAAAAAAAAAAAAAAAAAAAAAAAAAAAAAAAAAAAAAAAAAAAAAAAAAAAAAAAAAAAAAAAAAAAAAAAAAAAAAAAAAAAAAAAAAAAAAAAAAAAAAAAAAAAAAAAAAAAAAAAAAAAAAAAAAAAAAAAAAAAAAAAAAAAAAAAAAAAAAAAAAAAAAAAAAAAAAAAAAAAAAAAAAAAAAAAAAAAAAAAAAAAAAAAAAAAAAAAAAAAAAAAAAAAAAAAAAAAAAAAAAAAAAAAAAAAAAAAAAAAAAAAAAAAAAAAAAAAAAAAAAAAAAAAAAAAAAAAAAAAAAAAAAAAAAAAAAAAAAAAAAAAAAAAAAAAAAAAAAAAAAAAAAAAAAAAAAAAAAAAAAAAAAAAAAAAAAAAAAAAAAAAAAAAAAAAAAAAAAAAAAAAAAAAAAAAAAAAAAAAAAAAAAAAAAAAAAAAAAAAAAAAAAAAAAAAAAAAAAAAAAAAAAAAAAAAAAAAAAAAAAAAAAAAAAAAAAAAAAAAAAAAAAAAAAAAAAAAAAAAAAAAAAAAAAAAAAAAAAAAAAAAAAAAAAAAAAAAAAAAAAAAAAAAAAAAAAAAAAAAAAAAAAAAAAAAAAAAAAAAAAAAAAAAAAAAAAAAAAAAAAAAAAAAAAAAAAAAAAAAAAAAAAAAAAAAAAAAAAAAAAAAAAAAAAAAAAAAAAAAAAAAAAAAAAAAAAAAAAAAAAAAAAAAAAAAAAAAAAAAAAAAAAAAAAAAAAAAAAAAAAAAAAAAAAAAAAAAAAAAAAAAAAAAAAAAAAAAAAAAAAAAAAAAAAAAAAAAAAAAAAAAAAAAAAAAAAAAAAAAAAAAAAAAAAAAAAAAAAAAAAAAAAAAAAAAAAAAAAAAAAAAAAAAAAAAAAAAAAAAAAAAAAAAAAAAAAAAAAAAAAAAAAAAAAAAAAAAAAAAAAAAAAAAAAAAAAAAAAAAAAAAAAAAAAAAAAAAAAAAAAAAAAAAAAAAAAAAAAAAAAAAAAAAAAAAAAAAAAAAAAAAAAAAAAAAAAAAAAAAAAAAAAAAAAAAAAAAAAAAAAAAAAAAAAAAAAAAAAAAAAAAAAAAAAAAAAAAAAAAAAAAAAAAAAAAAAAAAAAAAAAAAAAAAAAAAAAAAAAAAAAAAAAAAAAAAAAAAAAAAAAAAAAAAAAAAAAAAAAAAAAAAAAAAAAAAAAAAAAAAAAAAAAAAAAAAAAAAAAAAAAAAAAAAAAAAAAAAAAAAAAAAAAAAAAAAAAAAAAAAAAAAAAAAAAAAAAAAAAAAAAAAAAAAAAAAAAAAAAAAAAAAAAAAAAAAAAAAAAAAAAAAAAAAAAAAAAAAAAAAAAAAAAAAAAAAAAAAAAAAAAAAAAAAAAAAAAAAAAAAAAAAAAAAAAAAAAAAAAAAAAAAAAAAAAAAAAAAAAAAAAAAAAAAAAAAAAAAAAAAAAAAAAAAAAAAAAAAAAAAAAAAAAAAAAAAAAAAAAAAAAAAAAAAAAAAAAAAAAAAAAAAAAAAAAAAAAAAAAAAAAAAAAAAAAAAAAAAAAAAAAAAAAAAAAAAAAAAAAAAAAAAAAAAAAAAAAAAAAAAAAAAAAAAAAAAAAAAAAAAAAAAAAAAAAAAAAAAAAAAAAAAAAAAAAAAAAAAAAAAAAAAAAAAAAAAAAAAAAAAAAAAAAAAAAAAAAAAAAAAAAAAAAAAAAAAAAAAAAAAAAAAAAAAAAAAAAAAAAAAAAAAAAAAAAAAAAAAAAAAAAAAAAAAAAAAAAAAAAAAAAAAAAAAAAAAAAAAAAAAAAAAAAAAAAAAAAAAAAAAAAAAAAAAAAAAAAAAAAAAAAAAAAAAAAAAAAAAAAAAAAAAAAAAAAAAAAAAAAAAAAAAAAAAAAAAAAAAAAAAAAAAAAAAAAAAAAAAAAAAAAAAAAAAAAAAAAAAAAAAAAAAAAAAAAAAAAAAAAAAAAAAAAAAAAAAAAAAAAAAAAAAAAAAAAAAAAAAAAAAAAAAAAAAAAAAAAAAAAAAAAAAAAAAAAAAAAAAAAAAAAAAAAAAAAAAAAAAAAAAAAAAAAAAAAAAAAAAAAAAAAAAAAAAAAAAAAAAAAAAAAAAAAAAAAAAAAAAAAAAAAAAAAAAAAAAAAAAAAAAAAAAAAAAAAAAAAAAAAAAAAAAAAAAAAAAAAAAAAAAAAAAAAAAAAAAAAAAAAAAAAAAAAAAAAAAAAAAAAAAAAAAAAAAAAAAAAAAAAAAAAAAAAAAAAAAAAAAAAAAAAAAAAAAAAAAAAAAAAAAAAAAAAAAAAAAAAAAAAAAAAAAAAAAAAAAAAAAAAAAAAAAAAAAAAAAAAAAAAAAAAAAAAAAAAAAAAAAAAAAAAAAAAAAAAAAAAAAAAAAAAAAAAAAAAAAAAAAAAAAAAAAAAAAAAAAAAAAAAAAAAAAAAAAAAAAAAAAAAAAAAAAAAAAAAAAAAAAAAAAAAAAAAAAAAAAAAAAAAAAAAAAAAAAAAAAAAAAAAAAAAAAAAAAAAAAAAAAAAAAAAAAAAAAAAAAAAAAAAAAAAAAAAAAAAAAAAAAAAAAAAAAAAAAAAAAAAAAAAAAAAAAAAAAAAAAAAAAAAAAAAAAAAAAAAAAAAAAAAAAAAAAAAAAAAAAAAAAAAAAAAAAAAAAAAAAAAAAAAAAAAAAAAAAAAAAAAAAAAAAAAAAAAAAAAAAAAAAAAAAAAAAAAAAAAAAAAAAAAAAAAAAAAAAAAAAAAAAAAAAAAAAAAAAAAAAAAAAAAAAAAAAAAAAAAAAAAAAAAAAAAAAAAAAAAAAAAAAAAAAAAAAAAAAAAAAAAAAAAAAAAAAAAAAAAAAAAAAAAAAAAAAAAAAAAAAAAAAAAAAAAAAAAAAAAAAAAAAAAAAAAAAAAAAAAAAAAAAAAAAAAAAAAAAAAAAAAAAAAAAAAAAAAAAAAAAAAAAAAAAAAAAAAAAAAAAAAAAAAAAAAAAAAAAAAAAAAAAAAAAAAAAAAAAAAAAAAAAAAAAAAAAAAAAAAAAAAAAAAAAAAAAAAAAAAAAAAAAAAAAAAAAAAAAAAAAAAAAAAAAAAAAAAAAAAAAAAAAAAAAAAAAAAAAAAAAAAAAAAAAAAAAAAAAAAAAAAAAAAAAAAAAAAAAAAAAAAAAAAAAAAAAAAAAAAAAAAAAAAAAAAAAAAAAAAAAAAAAAAAAAAAAAAAAAAAAAAAAAAAAAAAAAAAAAAAAAAAAAAAAAAAAAAAAAAAAAAAAAAAAAAAAAAAAAAAAAAAAAAAAAAAAAAAAAAAAAAAAAAAAAAAAAAAAAAAAAAAAAAAAAAAAAAAAAAAAAAAAAAAAAAAAAAAAAAAAAAAAAAAAAAAAAAAAAAAAAAAAAAAAAAAAAAAAAAAAAAAAAAAAAAAAAAAAAAAAAAAAAPZYQEE3Zu4Noz9LejxgqhrwYvthYlYWWICgZe413tehysZrf3Cxh9CQJFjIFj5+dbqBM8AOMug7wYs6IaM+gClPXEk=</c2pa:manifest></metadata><path fill="#2B2420" d="M1038.5 995.1C777.1 995.1 565.2 772.4 565.2 497.6C565.2 222.8 777.1 0 1038.5 0C1147.3 0 1247.4 38.6 1327.4 103.4V196.7C1266.1 127.4 1183.8 85 1093.1 85C904.1 85 750.9 269.7 750.9 497.6C750.9 725.5 904.1 910.2 1093.1 910.2C1100.6 910.2 1107.9 909.9 1115.2 909.3L1140.5 983.6C1107.7 991.1 1073.5 995.1 1038.5 995.1ZM888 245.1H1121.1V264.6Q1107.4 264.6 1097.8 269.6L1242.6 694.3L1429.1 267.8Q1420.8 264.6 1409.9 264.6V245.1H1548.2V264.6Q1516.7 264.6 1507 291.3H1486.8L1176.9 1000L935.3 291.3H929.3Q919.6 264.6 888 264.6ZM1275.7 846.6C1330.5 804.9 1374.7 745 1402.6 674V815.5C1356 874.4 1296.7 921.8 1229.2 953.1ZM397 1397H330.3L315 1434.6H315.1Q312.9 1440 314.3 1443.8Q315.6 1447.6 318.9 1449.6Q322.1 1451.6 325.4 1451.6H327.8V1454.3H271V1451.6H273.4Q279.6 1451.6 286.2 1447.7Q292.1 1444.3 296.1 1436.7L358.7 1293Q359.2 1291.9 361 1287.7Q362.7 1283.5 365 1278.1Q367.3 1272.7 368.9 1267.7Q370.6 1262.7 370.8 1260H373.3L451.4 1436.1Q455.6 1444.1 461.6 1447.7Q468.3 1451.6 474.5 1451.6H476.7V1454.3H399V1451.6H401.4Q406.6 1451.6 410.6 1447.2Q414.5 1442.9 411.9 1435.3ZM900.2 1397H833.5L818.2 1434.6H818.3Q816.1 1440 817.5 1443.8Q818.8 1447.6 822.1 1449.6Q825.3 1451.6 828.6 1451.6H831V1454.3H774.1V1451.6H776.6Q782.8 1451.6 789.4 1447.7Q795.3 1444.3 799.3 1436.7L861.8 1293Q862.4 1291.9 864.1 1287.7Q865.9 1283.5 868.2 1278.1Q870.5 1272.7 872.1 1267.7Q873.8 1262.7 874 1260H876.5L954.6 1436.1Q958.8 1444.1 964.8 1447.7Q971.5 1451.6 977.7 1451.6H979.9V1454.3H902.2V1451.6H904.6Q909.8 1451.6 913.8 1447.2Q917.7 1442.9 915.1 1435.3ZM2033.8 1397H1967.1L1951.8 1434.6H1951.9Q1949.7 1440 1951.1 1443.8Q1952.4 1447.6 1955.7 1449.6Q1958.9 1451.6 1962.2 1451.6H1964.6V1454.3H1907.8V1451.6H1910.2Q1916.4 1451.6 1923 1447.7Q1928.9 1444.3 1932.9 1436.7L1995.5 1293Q1996 1291.9 1997.8 1287.7Q1999.5 1283.5 2001.8 1278.1Q2004.1 1272.7 2005.7 1267.7Q2007.4 1262.7 2007.6 1260H2010.1L2088.2 1436.1Q2092.4 1444.1 2098.4 1447.7Q2105.1 1451.6 2111.3 1451.6H2113.5V1454.3H2035.8V1451.6H2038.2Q2043.4 1451.6 2047.4 1447.2Q2051.3 1442.9 2048.7 1435.3ZM181.4 1420.5Q175.1 1431.1 164.8 1439.6Q154.6 1448.1 139.8 1453.1Q125.1 1458.1 105.3 1458.1Q73.9 1457.9 50.1 1446Q26.3 1434 13.1 1412Q0 1389.9 0 1359.3Q0 1329.3 13 1307.2Q26 1285.2 49.8 1273.1Q73.6 1261.1 106.4 1261.1Q127.5 1261.1 144.3 1265.8Q161.1 1270.6 172.7 1277.1L174.9 1320.6H172.4Q165.7 1294.9 148.5 1283.1Q131.3 1271.4 108.3 1271.4Q86.1 1271.4 70 1282.1Q53.9 1292.8 45.1 1312.4Q36.3 1332 36.3 1358.8Q36.3 1385.6 44.8 1405.5Q53.3 1425.4 68.9 1436.3Q84.5 1447.3 105.3 1447.9Q125.6 1447.9 140.6 1440.9Q155.6 1434 165.3 1418.1Q174.9 1402.1 178.6 1375.3H180.8ZM1262.7 1284.4 1312.1 1406.2 1364.1 1283.3Q1366.7 1276 1362.9 1271.9Q1358.8 1267.6 1353.4 1267.6H1351V1264.9H1407.8V1267.6H1405.4Q1399.4 1267.6 1392.6 1271.5Q1386.8 1274.9 1382.7 1282.3L1317.9 1426.2Q1317.4 1427.3 1315.5 1431.5Q1313.6 1435.7 1311.4 1441.1Q1309.3 1446.5 1307.7 1451.5Q1306 1456.5 1305.8 1459.2H1303.3L1223.9 1284.6L1223.7 1284.6Q1219.4 1275.4 1212.8 1271.5Q1206.2 1267.6 1199.9 1267.6H1197.8V1264.9H1275.4V1267.6H1273Q1267.9 1267.6 1263.9 1271.9Q1260 1276.2 1263 1284.4ZM1723.4 1284.4 1772.8 1406.2 1824.8 1283.3Q1827.4 1276 1823.6 1271.9Q1819.5 1267.6 1814.1 1267.6H1811.7V1264.9H1868.5V1267.6H1866.1Q1860.1 1267.6 1853.3 1271.5Q1847.5 1274.9 1843.4 1282.3L1778.6 1426.2Q1778.1 1427.3 1776.2 1431.5Q1774.3 1435.7 1772.1 1441.1Q1770 1446.5 1768.4 1451.5Q1766.7 1456.5 1766.5 1459.2H1764L1684.6 1284.6L1684.4 1284.6Q1680.1 1275.4 1673.5 1271.5Q1666.8 1267.6 1660.6 1267.6H1658.5V1264.9H1736.1V1267.6H1733.7Q1728.6 1267.6 1724.6 1271.9Q1720.7 1276.2 1723.7 1284.4ZM636.4 1261.6Q643.4 1262.2 650.6 1263.1Q653.1 1263.5 655.5 1263.8H671.6L671.3 1269.5H671.1L669.1 1301.4H666.4Q666.4 1287.6 656.5 1279.5Q646.7 1271.4 631 1271.4Q615.3 1271.4 605.9 1279.5Q596.6 1287.6 596.3 1299.2Q595.8 1306 600.2 1312.4Q604.7 1318.7 612.3 1324.2L664.5 1362.9Q675.6 1370.2 680.8 1380.6Q685.9 1391 685.4 1404Q684.6 1428.9 667.4 1443.5Q650.2 1458.1 620.7 1458.1Q610.7 1458.1 600.2 1456.4Q589.8 1454.6 581.2 1451Q572.5 1447.3 567.3 1442.2Q565.7 1436.8 566 1429Q566.3 1421.3 568.2 1413.1Q570.1 1404.8 572.8 1399.1H575.2Q574.1 1412.9 579.8 1424.2Q585.5 1435.4 596.4 1441.8Q607.4 1448.1 622.3 1447.9Q639.1 1447.3 649.2 1438.4Q659.4 1429.4 659.4 1415.4Q659.4 1407.2 655 1400.6Q650.7 1394 641.5 1388.6L592.5 1351.5Q580.1 1343.4 574.8 1331.9Q569.5 1320.4 570.3 1307.9Q571.1 1294.9 577.6 1284.2Q584.1 1273.5 595.9 1267.3Q607.7 1261.1 624.2 1261.1Q629.3 1261.1 636.4 1261.6ZM1570.8 1264.9V1267.6H1567.2Q1560.2 1267.6 1555.2 1272.6Q1550.2 1277.6 1549.9 1284.6V1434.6Q1550.2 1441.6 1555.2 1446.6Q1560.2 1451.6 1567.2 1451.6H1570.8V1454.3H1496V1451.6H1499.6Q1506.6 1451.6 1511.6 1446.6Q1516.6 1441.6 1516.9 1434.6V1284.6Q1516.6 1277.6 1511.6 1272.6Q1506.6 1267.6 1499.6 1267.6H1496V1264.9ZM867.6 1313.3 837.7 1386.7H896.2ZM2001.3 1313.3 1971.3 1386.7H2029.8ZM364.5 1313.3 334.5 1386.7H393Z"/></svg>
